<svg width="214" height="82" viewBox="0 0 214 82" fill="none" xmlns="http://www.w3.org/2000/svg">
<g clip-path="url(#clip0)">
<g filter="url(#filter0_d)">
<path d="M67.344 20.2371V25.8917L63.5743 29.7871H14.3166L10.5469 25.8917V20.2371C10.5469 17.1081 13.0725 14.5825 16.2015 14.5825H61.6894C64.8184 14.5825 67.344 17.1081 67.344 20.2371Z" fill="#009FE3"/>
<path d="M67.3439 20.2371V25.8917L63.5742 29.7871H38.9453V14.5825H61.6893C64.8183 14.5825 67.3439 17.1081 67.3439 20.2371Z" fill="#0193D2"/>
<path d="M67.344 25.8917V61.9554C67.344 65.0841 64.8184 67.61 61.6894 67.61H16.2015C13.0725 67.61 10.5469 65.0841 10.5469 61.9554V25.8917H67.344Z" fill="#E9F6FF"/>
<path d="M67.3439 25.8917V61.9554C67.3439 65.0841 64.8183 67.61 61.6893 67.61H38.9453V25.8917H67.3439Z" fill="#D9F0FF"/>
<path d="M57.9197 44.9916H50.3802C49.3384 44.9916 48.4954 44.1486 48.4954 43.1068V35.5673C48.4954 34.5255 49.3384 33.6825 50.3802 33.6825H57.9197C58.9615 33.6825 59.8046 34.5255 59.8046 35.5673V43.1068C59.8046 44.1486 58.9615 44.9916 57.9197 44.9916Z" fill="#AAE2FF"/>
<path d="M57.9197 59.7657H50.3802C49.3384 59.7657 48.4954 58.9227 48.4954 57.8809V50.3414C48.4954 49.2996 49.3384 48.4566 50.3802 48.4566H57.9197C58.9615 48.4566 59.8046 49.2996 59.8046 50.3414V57.8809C59.8046 58.9227 58.9615 59.7657 57.9197 59.7657Z" fill="#AAE2FF"/>
<path d="M54.15 10.8128C51.021 10.8128 48.4954 13.3384 48.4954 16.4674V20.2371C48.4954 21.2925 49.3246 22.122 50.3802 22.122H57.9197C58.9753 22.122 59.8046 21.2925 59.8046 20.2371V16.4674C59.8046 13.3384 57.279 10.8128 54.15 10.8128Z" fill="#495A79"/>
<path d="M27.5105 44.9916H19.9711C18.9292 44.9916 18.0862 44.1486 18.0862 43.1068V35.5673C18.0862 34.5255 18.9292 33.6825 19.9711 33.6825H27.5105C28.5523 33.6825 29.3954 34.5255 29.3954 35.5673V43.1068C29.3954 44.1486 28.5523 44.9916 27.5105 44.9916Z" fill="#CBEDFE"/>
<path d="M27.5105 60.0705H19.9711C18.9292 60.0705 18.0862 59.2275 18.0862 58.1857V50.6462C18.0862 49.6044 18.9292 48.7614 19.9711 48.7614H27.5105C28.5523 48.7614 29.3954 49.6044 29.3954 50.6462V58.1857C29.3954 59.2275 28.5523 60.0705 27.5105 60.0705Z" fill="#CBEDFE"/>
<path d="M42.8409 33.6825H35.0501C33.9945 33.6825 33.1653 34.5117 33.1653 35.5673V43.1068C33.1653 44.1622 33.9945 44.9916 35.0501 44.9916H42.8409C43.8965 44.9916 44.7257 44.1622 44.7257 43.1068V35.5673C44.7257 34.5117 43.8965 33.6825 42.8409 33.6825Z" fill="#CBEDFE"/>
<path d="M44.7256 35.5673V43.1068C44.7256 44.1622 43.8964 44.9916 42.8407 44.9916H38.9453V33.6825H42.8407C43.8964 33.6825 44.7256 34.5117 44.7256 35.5673Z" fill="#AAE2FF"/>
<path d="M42.8409 48.7614H35.0501C33.9945 48.7614 33.1653 49.5906 33.1653 50.6462V58.1857C33.1653 59.2411 33.9945 60.0705 35.0501 60.0705H42.8409C43.8965 60.0705 44.7257 59.2411 44.7257 58.1857V50.6462C44.7257 49.5906 43.8965 48.7614 42.8409 48.7614Z" fill="#CBEDFE"/>
<path d="M44.7256 50.6462V58.1857C44.7256 59.2411 43.8964 60.0705 42.8407 60.0705H38.9453V48.7614H42.8407C43.8964 48.7614 44.7256 49.5906 44.7256 50.6462Z" fill="#AAE2FF"/>
<path d="M59.8045 16.4674V20.2371C59.8045 21.2925 58.9753 22.122 57.9196 22.122H54.1499V10.8128C57.2789 10.8128 59.8045 13.3384 59.8045 16.4674Z" fill="#42516D"/>
<path d="M23.7408 10.8128C20.6118 10.8128 18.0862 13.3384 18.0862 16.4674V20.2371C18.0862 21.2925 18.9154 22.122 19.9711 22.122H27.5105C28.5662 22.122 29.3954 21.2925 29.3954 20.2371V16.4674C29.3954 13.3384 26.8698 10.8128 23.7408 10.8128Z" fill="#495A79"/>
<path d="M29.3953 16.4674V20.2371C29.3953 21.2925 28.5661 22.122 27.5105 22.122H23.7407V10.8128C26.8697 10.8128 29.3953 13.3384 29.3953 16.4674Z" fill="#42516D"/>
<path d="M71.8122 62.9774L69.4375 61.5987C69.4863 61.0511 69.4863 60.5016 69.4375 59.9539L71.8122 58.5753C72.3792 58.2461 72.5735 57.5169 72.2461 56.9467L69.5702 52.2862C69.413 52.0124 69.1541 51.8126 68.8503 51.7307C68.5465 51.6488 68.2229 51.6917 67.9506 51.8498L65.5757 53.2286C65.1282 52.9114 64.655 52.6362 64.1593 52.4051V49.6488C64.1593 48.9903 63.6284 48.4566 62.9736 48.4566H57.622C56.9671 48.4566 56.4363 48.9904 56.4363 49.6488V52.4049C55.9406 52.6362 55.4674 52.9114 55.0199 53.2285L52.645 51.8497C52.3727 51.6916 52.0493 51.6488 51.7453 51.7306C51.4415 51.8123 51.1826 52.0122 51.0254 52.2861L48.3495 56.9466C48.0221 57.5168 48.2164 58.2459 48.7834 58.5752L51.1581 59.9538C51.1093 60.5014 51.1093 61.051 51.1581 61.5986L48.7834 62.9772C48.5111 63.1353 48.3124 63.3957 48.231 63.7012C48.1496 64.0066 48.1922 64.332 48.3494 64.6058L51.0253 69.2663C51.3527 69.8365 52.0779 70.0319 52.6449 69.7026L55.0198 68.3239C55.4673 68.6411 55.9405 68.9163 56.4362 69.1475V71.9038C56.4362 72.5623 56.9671 73.096 57.6219 73.096H62.9736C63.6284 73.096 64.1592 72.5622 64.1592 71.9038V69.1477C64.6549 68.9164 65.128 68.6413 65.5756 68.3241L67.9505 69.7028C68.5176 70.0321 69.2427 69.8367 69.5701 69.2665L72.246 64.6061C72.4032 64.3322 72.4458 64.0067 72.3645 63.7014C72.2833 63.3961 72.0845 63.1354 71.8122 62.9774ZM60.2979 65.6887C57.6042 65.6887 55.4127 63.4851 55.4127 60.7764C55.4127 58.0677 57.6042 55.8641 60.2979 55.8641C62.9917 55.8641 65.1832 58.0677 65.1832 60.7764C65.1832 63.4851 62.9917 65.6887 60.2979 65.6887Z" fill="#495A79"/>
<path d="M71.8123 62.9774L69.4375 61.5988C69.4863 61.0512 69.4863 60.5016 69.4375 59.954L71.8123 58.5753C72.3793 58.2461 72.5736 57.5169 72.2462 56.9467L69.5702 52.2863C69.413 52.0124 69.1542 51.8126 68.8504 51.7308C68.5466 51.6488 68.2229 51.6917 67.9506 51.8499L65.5757 53.2287C65.1283 52.9115 64.6551 52.6363 64.1594 52.4051V49.6488C64.1594 48.9904 63.6285 48.4566 62.9738 48.4566H60.2979V55.864C62.9916 55.864 65.183 58.0677 65.183 60.7763C65.183 63.485 62.9916 65.6887 60.2979 65.6887V73.0962H62.9738C63.6286 73.0962 64.1594 72.5623 64.1594 71.904V69.1478C64.6551 68.9165 65.1281 68.6414 65.5757 68.3242L67.9506 69.703C68.5177 70.0323 69.2428 69.8368 69.5702 69.2666L72.2462 64.6062C72.4034 64.3323 72.4461 64.0068 72.3647 63.7015C72.2834 63.3961 72.0846 63.1355 71.8123 62.9774Z" fill="#42516D"/>
</g>
<path d="M91.4199 23.7315C91.4199 22.1009 92.1873 21.5893 94.2336 21.5893C96.184 21.5893 97.9426 21.7492 99.829 22.0689L100.181 18.7436C98.1024 18.328 96.184 18.1681 94.3935 18.1681C89.3096 18.1681 87.4551 19.8307 87.4551 23.3159V30.2862C87.4551 33.6115 89.1497 35.434 94.1696 35.434C96.3119 35.434 98.678 35.1462 100.66 34.5707V26.9929H96.9514V31.789C96.152 31.9488 95.2567 32.0448 94.2975 32.0448C91.8036 32.0448 91.4199 31.2774 91.4199 29.7426V23.7315ZM103.853 35.1143H115.523V31.8529H107.818V28.2718H114.948V24.9785H107.818V21.7492H115.523V18.4878H103.853V35.1143ZM129.141 35.1143H133.649L129.812 29.4549C131.507 28.5276 132.018 27.4405 132.018 25.5541V23.156C132.018 20.2144 130.579 18.4878 126.199 18.4878H118.397V35.1143H122.362V30.2542H125.879L129.141 35.1143ZM126.103 27.0888H122.362V21.7172H126.231C127.606 21.7172 128.149 22.1648 128.149 23.3479V25.3302C128.149 26.5133 127.606 27.0888 126.103 27.0888ZM145.021 18.4878H140.097L134.278 35.1143H138.243L139.202 32.1407H145.917L146.876 35.1143H150.841L145.021 18.4878ZM144.989 29.0392H140.129L142.559 21.4934L144.989 29.0392ZM166.384 24.1152C166.384 20.9178 165.201 18.4878 160.245 18.4878H152.763V35.1143H160.245C165.201 35.1143 166.384 32.6842 166.384 29.4868V24.1152ZM156.728 21.8451H160.021C161.812 21.8451 162.483 22.5485 162.483 24.0833V29.5188C162.483 31.0536 161.812 31.757 160.021 31.757H156.728V21.8451ZM183.055 23.4438C183.055 20.5981 181.105 18.1681 175.925 18.1681C170.745 18.1681 168.795 20.5981 168.795 23.4438V30.1583C168.795 33.004 170.745 35.434 175.925 35.434C181.105 35.434 183.055 33.004 183.055 30.1583V23.4438ZM179.091 23.8914V29.7107C179.091 31.1815 178.259 32.0128 175.925 32.0128C173.591 32.0128 172.76 31.1815 172.76 29.7107V23.8914C172.76 22.4206 173.591 21.5893 175.925 21.5893C178.259 21.5893 179.091 22.4206 179.091 23.8914ZM196.842 35.1143H201.35L197.513 29.4549C199.208 28.5276 199.719 27.4405 199.719 25.5541V23.156C199.719 20.2144 198.28 18.4878 193.9 18.4878H186.098V35.1143H190.063V30.2542H193.58L196.842 35.1143ZM193.804 27.0888H190.063V21.7172H193.932C195.307 21.7172 195.85 22.1648 195.85 23.3479V25.3302C195.85 26.5133 195.307 27.0888 193.804 27.0888Z" fill="#42516D"/>
<path d="M101.02 62.9209V46.2945H99.1652V53.4246H90.3084V46.2945H88.4539V62.9209H90.3084V55.0873H99.1652V62.9209H101.02ZM111.539 63.2406C116.399 63.2406 118.126 61.0984 118.126 58.2527V50.9627C118.126 48.117 116.399 45.9747 111.539 45.9747C106.679 45.9747 104.953 48.117 104.953 50.9627V58.2527C104.953 61.0984 106.679 63.2406 111.539 63.2406ZM116.271 51.0586V58.1568C116.271 60.395 114.992 61.578 111.539 61.578C108.086 61.578 106.807 60.395 106.807 58.1568V51.0586C106.807 48.8204 108.086 47.6374 111.539 47.6374C114.992 47.6374 116.271 48.8204 116.271 51.0586ZM133.549 62.9209H135.723L131.375 56.686C133.357 56.1424 134.124 54.7995 134.124 53.009V50.2273C134.124 47.8612 132.813 46.2945 129.073 46.2945H122.07V62.9209H123.925V56.9418H129.073H129.392L133.549 62.9209ZM129.073 55.2791H123.925V47.9571H129.073C131.439 47.9571 132.27 48.6286 132.27 50.3232V52.9131C132.27 54.6077 131.439 55.2791 129.073 55.2791ZM150.475 62.9209H152.362L145.967 46.2945H143.409L137.014 62.9209H138.901L140.595 58.6364H148.717L150.475 62.9209ZM144.688 47.5414L148.173 57.1016H141.171L144.688 47.5414ZM144.624 44.5998C145.967 43.8964 147.374 43.0011 148.589 42.1379L147.662 40.731C146.319 41.7222 145.04 42.5215 143.761 43.2889L144.624 44.5998ZM166.728 62.9209H168.902L164.554 56.686C166.536 56.1424 167.304 54.7995 167.304 53.009V50.2273C167.304 47.8612 165.993 46.2945 162.252 46.2945H155.249V62.9209H157.104V56.9418H162.252H162.571L166.728 62.9209ZM162.252 55.2791H157.104V47.9571H162.252C164.618 47.9571 165.449 48.6286 165.449 50.3232V52.9131C165.449 54.6077 164.618 55.2791 162.252 55.2791ZM173.807 46.2945H171.952V62.9209H173.807V46.2945ZM184.48 63.2406C189.34 63.2406 191.066 61.0984 191.066 58.2527V50.9627C191.066 48.117 189.34 45.9747 184.48 45.9747C179.62 45.9747 177.893 48.117 177.893 50.9627V58.2527C177.893 61.0984 179.62 63.2406 184.48 63.2406ZM189.212 51.0586V58.1568C189.212 60.395 187.933 61.578 184.48 61.578C181.027 61.578 179.748 60.395 179.748 58.1568V51.0586C179.748 48.8204 181.027 47.6374 184.48 47.6374C187.933 47.6374 189.212 48.8204 189.212 51.0586ZM205.722 58.9242C205.722 55.7268 205.498 55.3111 200.51 53.7764C196.418 52.5294 196.418 52.4654 196.418 50.3232C196.418 47.9891 196.865 47.6374 200.574 47.6374C201.981 47.6374 203.74 47.7972 205.274 48.1489L205.53 46.5503C203.931 46.1346 202.141 45.9747 200.51 45.9747C196.002 45.9747 194.563 46.9979 194.563 50.2592C194.563 53.2967 194.851 53.8723 199.807 55.3431C203.931 56.5581 203.867 56.622 203.867 58.9242C203.867 61.0344 203.1 61.578 200.031 61.578C198.432 61.578 196.386 61.3542 194.659 60.8746L194.371 62.4093C195.97 62.9848 198.336 63.2406 199.999 63.2406C204.507 63.2406 205.722 61.8338 205.722 58.9242Z" fill="#42516D"/>
</g>
<defs>
<filter id="filter0_d" x="0.546875" y="0.812805" width="81.8583" height="82.2834" filterUnits="userSpaceOnUse" color-interpolation-filters="sRGB">
<feFlood flood-opacity="0" result="BackgroundImageFix"/>
<feColorMatrix in="SourceAlpha" type="matrix" values="0 0 0 0 0 0 0 0 0 0 0 0 0 0 0 0 0 0 127 0"/>
<feOffset/>
<feGaussianBlur stdDeviation="5"/>
<feColorMatrix type="matrix" values="0 0 0 0 0 0 0 0 0 0 0 0 0 0 0 0 0 0 0.4 0"/>
<feBlend mode="normal" in2="BackgroundImageFix" result="effect1_dropShadow"/>
<feBlend mode="normal" in="SourceGraphic" in2="effect1_dropShadow" result="shape"/>
</filter>
<clipPath id="clip0">
<rect width="214" height="82" fill="white"/>
</clipPath>
</defs>
</svg>
