<svg width="205" height="71" viewBox="0 0 205 71" fill="none" xmlns="http://www.w3.org/2000/svg">
<g clip-path="url(#clip0)" filter="url(#filter0_d)">
<path d="M63.844 13.6228V19.2774L60.0743 23.1728H10.8166L7.04688 19.2774V13.6228C7.04688 10.4938 9.57246 7.96825 12.7015 7.96825H58.1894C61.3184 7.96825 63.844 10.4938 63.844 13.6228Z" fill="#009FE3"/>
<path d="M63.844 13.6228V19.2774L60.0743 23.1728H35.4454V7.96825H58.1894C61.3184 7.96825 63.844 10.4938 63.844 13.6228Z" fill="#0193D2"/>
<path d="M63.844 19.2774V55.3411C63.844 58.4698 61.3184 60.9957 58.1894 60.9957H12.7015C9.57246 60.9957 7.04688 58.4698 7.04688 55.3411V19.2774H63.844Z" fill="#E9F6FF"/>
<path d="M63.844 19.2774V55.3411C63.844 58.4699 61.3184 60.9957 58.1894 60.9957H35.4454V19.2774H63.844Z" fill="#D9F0FF"/>
<path d="M54.4198 38.3774H46.8803C45.8385 38.3774 44.9955 37.5343 44.9955 36.4925V28.9531C44.9955 27.9112 45.8385 27.0682 46.8803 27.0682H54.4198C55.4616 27.0682 56.3047 27.9112 56.3047 28.9531V36.4925C56.3047 37.5343 55.4616 38.3774 54.4198 38.3774Z" fill="#AAE2FF"/>
<path d="M54.4198 53.1515H46.8803C45.8385 53.1515 44.9955 52.3084 44.9955 51.2666V43.7271C44.9955 42.6853 45.8385 41.8423 46.8803 41.8423H54.4198C55.4616 41.8423 56.3047 42.6853 56.3047 43.7271V51.2666C56.3047 52.3084 55.4616 53.1515 54.4198 53.1515Z" fill="#AAE2FF"/>
<path d="M50.6501 4.19852C47.5211 4.19852 44.9955 6.72411 44.9955 9.8531V13.6228C44.9955 14.6782 45.8247 15.5077 46.8803 15.5077H54.4198C55.4754 15.5077 56.3047 14.6782 56.3047 13.6228V9.8531C56.3047 6.72411 53.7791 4.19852 50.6501 4.19852Z" fill="#495A79"/>
<path d="M24.0106 38.3774H16.4712C15.4293 38.3774 14.5863 37.5343 14.5863 36.4925V28.9531C14.5863 27.9112 15.4293 27.0682 16.4712 27.0682H24.0106C25.0524 27.0682 25.8955 27.9112 25.8955 28.9531V36.4925C25.8955 37.5343 25.0524 38.3774 24.0106 38.3774Z" fill="#CBEDFE"/>
<path d="M24.0106 53.4562H16.4712C15.4293 53.4562 14.5863 52.6132 14.5863 51.5714V44.0319C14.5863 42.9901 15.4293 42.1471 16.4712 42.1471H24.0106C25.0524 42.1471 25.8955 42.9901 25.8955 44.0319V51.5714C25.8955 52.6132 25.0524 53.4562 24.0106 53.4562Z" fill="#CBEDFE"/>
<path d="M39.3408 27.0682H31.55C30.4944 27.0682 29.6652 27.8974 29.6652 28.9531V36.4925C29.6652 37.5479 30.4944 38.3774 31.55 38.3774H39.3408C40.3964 38.3774 41.2256 37.5479 41.2256 36.4925V28.9531C41.2256 27.8974 40.3964 27.0682 39.3408 27.0682Z" fill="#CBEDFE"/>
<path d="M41.2257 28.9531V36.4925C41.2257 37.5479 40.3965 38.3774 39.3408 38.3774H35.4454V27.0682H39.3408C40.3965 27.0682 41.2257 27.8974 41.2257 28.9531Z" fill="#AAE2FF"/>
<path d="M39.3408 42.1471H31.55C30.4944 42.1471 29.6652 42.9763 29.6652 44.0319V51.5714C29.6652 52.6268 30.4944 53.4562 31.55 53.4562H39.3408C40.3964 53.4562 41.2256 52.6268 41.2256 51.5714V44.0319C41.2256 42.9763 40.3964 42.1471 39.3408 42.1471Z" fill="#CBEDFE"/>
<path d="M41.2257 44.0319V51.5714C41.2257 52.6268 40.3965 53.4562 39.3408 53.4562H35.4454V42.1471H39.3408C40.3965 42.1471 41.2257 42.9763 41.2257 44.0319Z" fill="#AAE2FF"/>
<path d="M56.3046 9.8531V13.6228C56.3046 14.6782 55.4754 15.5077 54.4197 15.5077H50.65V4.19852C53.779 4.19852 56.3046 6.72411 56.3046 9.8531Z" fill="#42516D"/>
<path d="M20.2409 4.19852C17.1119 4.19852 14.5863 6.72411 14.5863 9.8531V13.6228C14.5863 14.6782 15.4155 15.5077 16.4712 15.5077H24.0106C25.0663 15.5077 25.8955 14.6782 25.8955 13.6228V9.8531C25.8955 6.72411 23.3699 4.19852 20.2409 4.19852Z" fill="#495A79"/>
<path d="M25.8954 9.8531V13.6228C25.8954 14.6782 25.0662 15.5077 24.0106 15.5077H20.2408V4.19852C23.3698 4.19852 25.8954 6.72411 25.8954 9.8531Z" fill="#42516D"/>
<path d="M68.3123 56.3631L65.9376 54.9845C65.9864 54.4368 65.9864 53.8873 65.9376 53.3397L68.3123 51.961C68.8793 51.6318 69.0736 50.9026 68.7462 50.3324L66.0703 45.672C65.9131 45.3981 65.6542 45.1983 65.3504 45.1164C65.0466 45.0345 64.723 45.0774 64.4507 45.2356L62.0758 46.6143C61.6283 46.2971 61.1551 46.0219 60.6594 45.7908L60.6594 43.0345C60.6594 42.376 60.1285 41.8423 59.4737 41.8423L54.1221 41.8423C53.4672 41.8423 52.9364 42.3761 52.9364 43.0345L52.9364 45.7906C52.4407 46.0219 51.9675 46.2971 51.52 46.6142L49.1451 45.2354C48.8728 45.0773 48.5494 45.0345 48.2454 45.1163C47.9416 45.1981 47.6827 45.3979 47.5255 45.6718L44.8496 50.3323C44.5222 50.9025 44.7165 51.6317 45.2835 51.9609L47.6582 53.3395C47.6094 53.8871 47.6094 54.4367 47.6582 54.9843L45.2835 56.3629C45.0112 56.521 44.8125 56.7814 44.7311 57.0869C44.6497 57.3924 44.6923 57.7177 44.8495 57.9915L47.5254 62.652C47.8528 63.2222 48.578 63.4176 49.145 63.0883L51.5199 61.7096C51.9674 62.0268 52.4406 62.302 52.9363 62.5332L52.9363 65.2896C52.9363 65.948 53.4672 66.4818 54.122 66.4818L59.4737 66.4818C60.1285 66.4818 60.6593 65.9479 60.6593 65.2896L60.6593 62.5334C61.155 62.3021 61.6281 62.027 62.0757 61.7098L64.4506 63.0886C65.0177 63.4178 65.7428 63.2224 66.0702 62.6522L68.7461 57.9918C68.9033 57.7179 68.9459 57.3924 68.8646 57.0871C68.7834 56.7818 68.5846 56.5212 68.3123 56.3631ZM56.798 59.0744C54.1043 59.0744 51.9128 56.8708 51.9128 54.1621C51.9128 51.4534 54.1043 49.2498 56.798 49.2498C59.4918 49.2498 61.6833 51.4534 61.6833 54.1621C61.6833 56.8708 59.4918 59.0744 56.798 59.0744Z" fill="#495A79"/>
<path d="M68.3124 56.3631L65.9377 54.9845C65.9865 54.4369 65.9865 53.8873 65.9377 53.3397L68.3124 51.961C68.8794 51.6318 69.0737 50.9026 68.7463 50.3324L66.0704 45.672C65.9132 45.3981 65.6543 45.1983 65.3505 45.1165C65.0467 45.0345 64.7231 45.0774 64.4508 45.2356L62.0759 46.6144C61.6285 46.2972 61.1552 46.022 60.6595 45.7908L60.6595 43.0345C60.6595 42.3761 60.1286 41.8423 59.4739 41.8423L56.798 41.8423L56.798 49.2497C59.4917 49.2497 61.6832 51.4534 61.6832 54.162C61.6832 56.8707 59.4917 59.0744 56.798 59.0744L56.798 66.4819L59.4739 66.4819C60.1287 66.4819 60.6595 65.948 60.6595 65.2897L60.6595 62.5335C61.1552 62.3022 61.6283 62.0271 62.0759 61.7099L64.4508 63.0887C65.0179 63.4179 65.743 63.2225 66.0704 62.6523L68.7463 57.9919C68.9035 57.718 68.9462 57.3925 68.8648 57.0872C68.7835 56.7818 68.5847 56.5212 68.3124 56.3631Z" fill="#42516D"/>
</g>
<path d="M87.9198 17.1173C87.9198 15.4866 88.6872 14.975 90.7335 14.975C92.6839 14.975 94.4425 15.1349 96.3289 15.4546L96.6806 12.1293C94.6023 11.7137 92.6839 11.5538 90.8934 11.5538C85.8095 11.5538 83.955 13.2165 83.955 16.7016V23.6719C83.955 26.9972 85.6496 28.8197 90.6695 28.8197C92.8118 28.8197 95.1779 28.532 97.1602 27.9564V20.3786H93.4513V25.1747C92.6519 25.3346 91.7566 25.4305 90.7974 25.4305C88.3035 25.4305 87.9198 24.6631 87.9198 23.1284V17.1173ZM100.353 28.5H112.023V25.2387H104.318V21.6576H111.448V18.3643H104.318V15.1349H112.023V11.8736H100.353V28.5ZM125.641 28.5H130.149L126.312 22.8406C128.007 21.9134 128.518 20.8263 128.518 18.9398V16.5417C128.518 13.6001 127.079 11.8736 122.699 11.8736H114.897V28.5H118.862V23.64H122.379L125.641 28.5ZM122.603 20.4745H118.862V15.1029H122.731C124.106 15.1029 124.649 15.5506 124.649 16.7336V18.716C124.649 19.899 124.106 20.4745 122.603 20.4745ZM141.521 11.8736H136.597L130.778 28.5H134.743L135.702 25.5264H142.417L143.376 28.5H147.341L141.521 11.8736ZM141.489 22.4249H136.629L139.059 14.8791L141.489 22.4249ZM162.884 17.501C162.884 14.3036 161.701 11.8736 156.745 11.8736H149.263V28.5H156.745C161.701 28.5 162.884 26.07 162.884 22.8726V17.501ZM153.228 15.2308H156.521C158.312 15.2308 158.983 15.9342 158.983 17.469V22.9046C158.983 24.4393 158.312 25.1427 156.521 25.1427H153.228V15.2308ZM179.555 16.8295C179.555 13.9838 177.605 11.5538 172.425 11.5538C167.245 11.5538 165.295 13.9838 165.295 16.8295V23.544C165.295 26.3897 167.245 28.8197 172.425 28.8197C177.605 28.8197 179.555 26.3897 179.555 23.544V16.8295ZM175.591 17.2771V23.0964C175.591 24.5672 174.759 25.3985 172.425 25.3985C170.091 25.3985 169.26 24.5672 169.26 23.0964V17.2771C169.26 15.8063 170.091 14.975 172.425 14.975C174.759 14.975 175.591 15.8063 175.591 17.2771ZM193.342 28.5H197.85L194.013 22.8406C195.708 21.9134 196.219 20.8263 196.219 18.9398V16.5417C196.219 13.6001 194.78 11.8736 190.4 11.8736H182.598V28.5H186.563V23.64H190.08L193.342 28.5ZM190.304 20.4745H186.563V15.1029H190.432C191.807 15.1029 192.35 15.5506 192.35 16.7336V18.716C192.35 19.899 191.807 20.4745 190.304 20.4745Z" fill="white"/>
<path d="M97.5196 56.3066V39.6802H95.6652V46.8104H86.8084V39.6802H84.9539V56.3066H86.8084V48.473H95.6652V56.3066H97.5196ZM108.039 56.6264C112.899 56.6264 114.626 54.4841 114.626 51.6385V44.3484C114.626 41.5027 112.899 39.3605 108.039 39.3605C103.179 39.3605 101.453 41.5027 101.453 44.3484V51.6385C101.453 54.4841 103.179 56.6264 108.039 56.6264ZM112.771 44.4443V51.5425C112.771 53.7807 111.492 54.9637 108.039 54.9637C104.586 54.9637 103.307 53.7807 103.307 51.5425V44.4443C103.307 42.2062 104.586 41.0231 108.039 41.0231C111.492 41.0231 112.771 42.2062 112.771 44.4443ZM130.049 56.3066H132.223L127.875 50.0717C129.857 49.5282 130.624 48.1853 130.624 46.3947V43.613C130.624 41.2469 129.313 39.6802 125.573 39.6802H118.57V56.3066H120.425V50.3275H125.573H125.892L130.049 56.3066ZM125.573 48.6649H120.425V41.3429H125.573C127.939 41.3429 128.77 42.0143 128.77 43.7089V46.2988C128.77 47.9934 127.939 48.6649 125.573 48.6649ZM146.975 56.3066H148.862L142.467 39.6802H139.909L133.514 56.3066H135.401L137.095 52.0221H145.217L146.975 56.3066ZM141.188 40.9272L144.673 50.4874H137.671L141.188 40.9272ZM141.124 37.9856C142.467 37.2822 143.874 36.3869 145.089 35.5236L144.162 34.1168C142.819 35.1079 141.54 35.9073 140.261 36.6747L141.124 37.9856ZM163.228 56.3066H165.402L161.054 50.0717C163.036 49.5282 163.804 48.1853 163.804 46.3947V43.613C163.804 41.2469 162.493 39.6802 158.752 39.6802H151.749V56.3066H153.604V50.3275H158.752H159.071L163.228 56.3066ZM158.752 48.6649H153.604V41.3429H158.752C161.118 41.3429 161.949 42.0143 161.949 43.7089V46.2988C161.949 47.9934 161.118 48.6649 158.752 48.6649ZM170.307 39.6802H168.452V56.3066H170.307V39.6802ZM180.98 56.6264C185.84 56.6264 187.566 54.4841 187.566 51.6385V44.3484C187.566 41.5027 185.84 39.3605 180.98 39.3605C176.12 39.3605 174.393 41.5027 174.393 44.3484V51.6385C174.393 54.4841 176.12 56.6264 180.98 56.6264ZM185.712 44.4443V51.5425C185.712 53.7807 184.433 54.9637 180.98 54.9637C177.527 54.9637 176.248 53.7807 176.248 51.5425V44.4443C176.248 42.2062 177.527 41.0231 180.98 41.0231C184.433 41.0231 185.712 42.2062 185.712 44.4443ZM202.222 52.3099C202.222 49.1125 201.998 48.6969 197.01 47.1621C192.918 45.9151 192.918 45.8512 192.918 43.7089C192.918 41.3748 193.365 41.0231 197.074 41.0231C198.481 41.0231 200.24 41.183 201.774 41.5347L202.03 39.936C200.431 39.5203 198.641 39.3605 197.01 39.3605C192.502 39.3605 191.063 40.3836 191.063 43.645C191.063 46.6825 191.351 47.258 196.307 48.7288C200.431 49.9438 200.367 50.0078 200.367 52.3099C200.367 54.4202 199.6 54.9637 196.531 54.9637C194.932 54.9637 192.886 54.7399 191.159 54.2603L190.871 55.7951C192.47 56.3706 194.836 56.6264 196.499 56.6264C201.007 56.6264 202.222 55.2195 202.222 52.3099Z" fill="white"/>
<defs>
<filter id="filter0_d" x="-2.95312" y="-5.8015" width="84.3366" height="84.3366" filterUnits="userSpaceOnUse" color-interpolation-filters="sRGB">
<feFlood flood-opacity="0" result="BackgroundImageFix"/>
<feColorMatrix in="SourceAlpha" type="matrix" values="0 0 0 0 0 0 0 0 0 0 0 0 0 0 0 0 0 0 127 0"/>
<feOffset/>
<feGaussianBlur stdDeviation="5"/>
<feColorMatrix type="matrix" values="0 0 0 0 0 0 0 0 0 0 0 0 0 0 0 0 0 0 0.4 0"/>
<feBlend mode="normal" in2="BackgroundImageFix" result="effect1_dropShadow"/>
<feBlend mode="normal" in="SourceGraphic" in2="effect1_dropShadow" result="shape"/>
</filter>
<clipPath id="clip0">
<rect width="64.3366" height="64.3366" fill="white" transform="translate(7.04688 4.1985)"/>
</clipPath>
</defs>
</svg>
