<svg width="214" height="82" viewBox="0 0 214 82" fill="none" xmlns="http://www.w3.org/2000/svg">
<g filter="url(#filter0_d)">
<path d="M67.344 20.2371V25.8917L63.5743 29.7871H14.3166L10.5469 25.8917V20.2371C10.5469 17.1081 13.0725 14.5825 16.2015 14.5825H61.6894C64.8184 14.5825 67.344 17.1081 67.344 20.2371Z" fill="#009FE3"/>
<path d="M67.344 20.2371V25.8917L63.5743 29.7871H38.9454V14.5825H61.6894C64.8184 14.5825 67.344 17.1081 67.344 20.2371Z" fill="#0193D2"/>
<path d="M67.344 25.8917V61.9554C67.344 65.0841 64.8184 67.61 61.6894 67.61H16.2015C13.0725 67.61 10.5469 65.0841 10.5469 61.9554V25.8917H67.344Z" fill="#E9F6FF"/>
<path d="M67.344 25.8917V61.9554C67.344 65.0841 64.8184 67.61 61.6894 67.61H38.9454V25.8917H67.344Z" fill="#D9F0FF"/>
<path d="M57.9198 44.9916H50.3803C49.3385 44.9916 48.4955 44.1486 48.4955 43.1068V35.5673C48.4955 34.5255 49.3385 33.6825 50.3803 33.6825H57.9198C58.9616 33.6825 59.8047 34.5255 59.8047 35.5673V43.1068C59.8047 44.1486 58.9616 44.9916 57.9198 44.9916Z" fill="#AAE2FF"/>
<path d="M57.9198 59.7657H50.3803C49.3385 59.7657 48.4955 58.9227 48.4955 57.8809V50.3414C48.4955 49.2996 49.3385 48.4566 50.3803 48.4566H57.9198C58.9616 48.4566 59.8047 49.2996 59.8047 50.3414V57.8809C59.8047 58.9227 58.9616 59.7657 57.9198 59.7657Z" fill="#AAE2FF"/>
<path d="M54.1501 10.8128C51.0211 10.8128 48.4955 13.3384 48.4955 16.4674V20.2371C48.4955 21.2925 49.3247 22.122 50.3803 22.122H57.9198C58.9754 22.122 59.8047 21.2925 59.8047 20.2371V16.4674C59.8047 13.3384 57.2791 10.8128 54.1501 10.8128Z" fill="#495A79"/>
<path d="M27.5106 44.9916H19.9712C18.9293 44.9916 18.0863 44.1486 18.0863 43.1068V35.5673C18.0863 34.5255 18.9293 33.6825 19.9712 33.6825H27.5106C28.5524 33.6825 29.3955 34.5255 29.3955 35.5673V43.1068C29.3955 44.1486 28.5524 44.9916 27.5106 44.9916Z" fill="#CBEDFE"/>
<path d="M27.5106 60.0705H19.9712C18.9293 60.0705 18.0863 59.2275 18.0863 58.1857V50.6462C18.0863 49.6044 18.9293 48.7614 19.9712 48.7614H27.5106C28.5524 48.7614 29.3955 49.6044 29.3955 50.6462V58.1857C29.3955 59.2275 28.5524 60.0705 27.5106 60.0705Z" fill="#CBEDFE"/>
<path d="M42.8408 33.6825H35.05C33.9944 33.6825 33.1652 34.5117 33.1652 35.5673V43.1068C33.1652 44.1622 33.9944 44.9916 35.05 44.9916H42.8408C43.8964 44.9916 44.7256 44.1622 44.7256 43.1068V35.5673C44.7256 34.5117 43.8964 33.6825 42.8408 33.6825Z" fill="#CBEDFE"/>
<path d="M44.7257 35.5673V43.1068C44.7257 44.1622 43.8965 44.9916 42.8408 44.9916H38.9454V33.6825H42.8408C43.8965 33.6825 44.7257 34.5117 44.7257 35.5673Z" fill="#AAE2FF"/>
<path d="M42.8408 48.7614H35.05C33.9944 48.7614 33.1652 49.5906 33.1652 50.6462V58.1857C33.1652 59.2411 33.9944 60.0705 35.05 60.0705H42.8408C43.8964 60.0705 44.7256 59.2411 44.7256 58.1857V50.6462C44.7256 49.5906 43.8964 48.7614 42.8408 48.7614Z" fill="#CBEDFE"/>
<path d="M44.7257 50.6462V58.1857C44.7257 59.2411 43.8965 60.0705 42.8408 60.0705H38.9454V48.7614H42.8408C43.8965 48.7614 44.7257 49.5906 44.7257 50.6462Z" fill="#AAE2FF"/>
<path d="M59.8046 16.4674V20.2371C59.8046 21.2925 58.9754 22.122 57.9197 22.122H54.15V10.8128C57.279 10.8128 59.8046 13.3384 59.8046 16.4674Z" fill="#42516D"/>
<path d="M23.7409 10.8128C20.6119 10.8128 18.0863 13.3384 18.0863 16.4674V20.2371C18.0863 21.2925 18.9155 22.122 19.9712 22.122H27.5106C28.5663 22.122 29.3955 21.2925 29.3955 20.2371V16.4674C29.3955 13.3384 26.8699 10.8128 23.7409 10.8128Z" fill="#495A79"/>
<path d="M29.3954 16.4674V20.2371C29.3954 21.2925 28.5662 22.122 27.5106 22.122H23.7408V10.8128C26.8698 10.8128 29.3954 13.3384 29.3954 16.4674Z" fill="#42516D"/>
<path d="M71.8123 62.9774L69.4376 61.5987C69.4864 61.0511 69.4864 60.5016 69.4376 59.9539L71.8123 58.5753C72.3793 58.2461 72.5736 57.5169 72.2462 56.9467L69.5703 52.2862C69.4131 52.0124 69.1542 51.8126 68.8504 51.7307C68.5466 51.6488 68.223 51.6917 67.9507 51.8498L65.5758 53.2286C65.1283 52.9114 64.6551 52.6362 64.1594 52.4051L64.1594 49.6488C64.1594 48.9903 63.6285 48.4566 62.9737 48.4566L57.6221 48.4566C56.9672 48.4566 56.4364 48.9904 56.4364 49.6488L56.4364 52.4049C55.9407 52.6362 55.4675 52.9114 55.02 53.2285L52.6451 51.8497C52.3728 51.6916 52.0494 51.6488 51.7454 51.7306C51.4416 51.8123 51.1827 52.0122 51.0255 52.2861L48.3496 56.9466C48.0222 57.5168 48.2165 58.2459 48.7835 58.5752L51.1582 59.9538C51.1094 60.5014 51.1094 61.051 51.1582 61.5986L48.7835 62.9772C48.5112 63.1353 48.3125 63.3957 48.2311 63.7012C48.1497 64.0066 48.1923 64.332 48.3495 64.6058L51.0254 69.2663C51.3528 69.8365 52.078 70.0319 52.645 69.7026L55.0199 68.3239C55.4674 68.6411 55.9406 68.9163 56.4363 69.1475L56.4363 71.9038C56.4363 72.5623 56.9672 73.096 57.622 73.096L62.9737 73.096C63.6285 73.096 64.1593 72.5622 64.1593 71.9038L64.1593 69.1477C64.655 68.9164 65.1281 68.6413 65.5757 68.3241L67.9506 69.7028C68.5177 70.0321 69.2428 69.8367 69.5702 69.2665L72.2461 64.6061C72.4033 64.3322 72.4459 64.0067 72.3646 63.7014C72.2834 63.3961 72.0846 63.1354 71.8123 62.9774ZM60.298 65.6887C57.6043 65.6887 55.4128 63.4851 55.4128 60.7764C55.4128 58.0677 57.6043 55.8641 60.298 55.8641C62.9918 55.8641 65.1833 58.0677 65.1833 60.7764C65.1833 63.4851 62.9918 65.6887 60.298 65.6887Z" fill="#495A79"/>
<path d="M71.8124 62.9774L69.4377 61.5988C69.4865 61.0512 69.4865 60.5016 69.4377 59.954L71.8124 58.5753C72.3794 58.2461 72.5737 57.5169 72.2463 56.9467L69.5704 52.2863C69.4132 52.0124 69.1543 51.8126 68.8505 51.7308C68.5467 51.6488 68.2231 51.6917 67.9508 51.8499L65.5759 53.2287C65.1285 52.9115 64.6552 52.6363 64.1595 52.4051L64.1595 49.6488C64.1595 48.9904 63.6286 48.4566 62.9739 48.4566L60.298 48.4566L60.298 55.864C62.9917 55.864 65.1832 58.0677 65.1832 60.7763C65.1832 63.485 62.9917 65.6887 60.298 65.6887L60.298 73.0962L62.9739 73.0962C63.6287 73.0962 64.1595 72.5623 64.1595 71.904L64.1595 69.1478C64.6552 68.9165 65.1283 68.6414 65.5759 68.3242L67.9508 69.703C68.5179 70.0323 69.243 69.8368 69.5704 69.2666L72.2463 64.6062C72.4035 64.3323 72.4462 64.0068 72.3648 63.7015C72.2835 63.3961 72.0847 63.1355 71.8124 62.9774Z" fill="#42516D"/>
</g>
<path d="M91.4198 23.7315C91.4198 22.1009 92.1872 21.5893 94.2335 21.5893C96.1839 21.5893 97.9425 21.7492 99.8289 22.0689L100.181 18.7436C98.1023 18.328 96.1839 18.1681 94.3934 18.1681C89.3095 18.1681 87.455 19.8307 87.455 23.3159V30.2862C87.455 33.6115 89.1496 35.434 94.1695 35.434C96.3118 35.434 98.6779 35.1462 100.66 34.5707V26.9929H96.9513V31.789C96.1519 31.9488 95.2566 32.0448 94.2974 32.0448C91.8035 32.0448 91.4198 31.2774 91.4198 29.7426V23.7315ZM103.853 35.1143H115.523V31.8529H107.818V28.2718H114.948V24.9785H107.818V21.7492H115.523V18.4878H103.853V35.1143ZM129.141 35.1143H133.649L129.812 29.4549C131.507 28.5276 132.018 27.4405 132.018 25.5541V23.156C132.018 20.2144 130.579 18.4878 126.199 18.4878H118.397V35.1143H122.362V30.2542H125.879L129.141 35.1143ZM126.103 27.0888H122.362V21.7172H126.231C127.606 21.7172 128.149 22.1648 128.149 23.3479V25.3302C128.149 26.5133 127.606 27.0888 126.103 27.0888ZM145.021 18.4878H140.097L134.278 35.1143H138.243L139.202 32.1407H145.917L146.876 35.1143H150.841L145.021 18.4878ZM144.989 29.0392H140.129L142.559 21.4934L144.989 29.0392ZM166.384 24.1152C166.384 20.9178 165.201 18.4878 160.245 18.4878H152.763V35.1143H160.245C165.201 35.1143 166.384 32.6842 166.384 29.4868V24.1152ZM156.728 21.8451H160.021C161.812 21.8451 162.483 22.5485 162.483 24.0833V29.5188C162.483 31.0536 161.812 31.757 160.021 31.757H156.728V21.8451ZM183.055 23.4438C183.055 20.5981 181.105 18.1681 175.925 18.1681C170.745 18.1681 168.795 20.5981 168.795 23.4438V30.1583C168.795 33.004 170.745 35.434 175.925 35.434C181.105 35.434 183.055 33.004 183.055 30.1583V23.4438ZM179.091 23.8914V29.7107C179.091 31.1815 178.259 32.0128 175.925 32.0128C173.591 32.0128 172.76 31.1815 172.76 29.7107V23.8914C172.76 22.4206 173.591 21.5893 175.925 21.5893C178.259 21.5893 179.091 22.4206 179.091 23.8914ZM196.842 35.1143H201.35L197.513 29.4549C199.208 28.5276 199.719 27.4405 199.719 25.5541V23.156C199.719 20.2144 198.28 18.4878 193.9 18.4878H186.098V35.1143H190.063V30.2542H193.58L196.842 35.1143ZM193.804 27.0888H190.063V21.7172H193.932C195.307 21.7172 195.85 22.1648 195.85 23.3479V25.3302C195.85 26.5133 195.307 27.0888 193.804 27.0888Z" fill="white"/>
<path d="M101.02 62.9209V46.2945H99.1652V53.4246H90.3084V46.2945H88.4539V62.9209H90.3084V55.0873H99.1652V62.9209H101.02ZM111.539 63.2406C116.399 63.2406 118.126 61.0984 118.126 58.2527V50.9627C118.126 48.117 116.399 45.9747 111.539 45.9747C106.679 45.9747 104.953 48.117 104.953 50.9627V58.2527C104.953 61.0984 106.679 63.2406 111.539 63.2406ZM116.271 51.0586V58.1568C116.271 60.395 114.992 61.578 111.539 61.578C108.086 61.578 106.807 60.395 106.807 58.1568V51.0586C106.807 48.8204 108.086 47.6374 111.539 47.6374C114.992 47.6374 116.271 48.8204 116.271 51.0586ZM133.549 62.9209H135.723L131.375 56.686C133.357 56.1424 134.124 54.7995 134.124 53.009V50.2273C134.124 47.8612 132.813 46.2945 129.073 46.2945H122.07V62.9209H123.925V56.9418H129.073H129.392L133.549 62.9209ZM129.073 55.2791H123.925V47.9571H129.073C131.439 47.9571 132.27 48.6286 132.27 50.3232V52.9131C132.27 54.6077 131.439 55.2791 129.073 55.2791ZM150.475 62.9209H152.362L145.967 46.2945H143.409L137.014 62.9209H138.901L140.595 58.6364H148.717L150.475 62.9209ZM144.688 47.5414L148.173 57.1016H141.171L144.688 47.5414ZM144.624 44.5998C145.967 43.8964 147.374 43.0011 148.589 42.1379L147.662 40.731C146.319 41.7222 145.04 42.5215 143.761 43.2889L144.624 44.5998ZM166.728 62.9209H168.902L164.554 56.686C166.536 56.1424 167.304 54.7995 167.304 53.009V50.2273C167.304 47.8612 165.993 46.2945 162.252 46.2945H155.249V62.9209H157.104V56.9418H162.252H162.571L166.728 62.9209ZM162.252 55.2791H157.104V47.9571H162.252C164.618 47.9571 165.449 48.6286 165.449 50.3232V52.9131C165.449 54.6077 164.618 55.2791 162.252 55.2791ZM173.807 46.2945H171.952V62.9209H173.807V46.2945ZM184.48 63.2406C189.34 63.2406 191.066 61.0984 191.066 58.2527V50.9627C191.066 48.117 189.34 45.9747 184.48 45.9747C179.62 45.9747 177.893 48.117 177.893 50.9627V58.2527C177.893 61.0984 179.62 63.2406 184.48 63.2406ZM189.212 51.0586V58.1568C189.212 60.395 187.933 61.578 184.48 61.578C181.027 61.578 179.748 60.395 179.748 58.1568V51.0586C179.748 48.8204 181.027 47.6374 184.48 47.6374C187.933 47.6374 189.212 48.8204 189.212 51.0586ZM205.722 58.9242C205.722 55.7268 205.498 55.3111 200.51 53.7764C196.418 52.5294 196.418 52.4654 196.418 50.3232C196.418 47.9891 196.865 47.6374 200.574 47.6374C201.981 47.6374 203.74 47.7972 205.274 48.1489L205.53 46.5503C203.931 46.1346 202.141 45.9747 200.51 45.9747C196.002 45.9747 194.563 46.9979 194.563 50.2592C194.563 53.2967 194.851 53.8723 199.807 55.3431C203.931 56.5581 203.867 56.622 203.867 58.9242C203.867 61.0344 203.1 61.578 200.031 61.578C198.432 61.578 196.386 61.3542 194.659 60.8746L194.371 62.4093C195.97 62.9848 198.336 63.2406 199.999 63.2406C204.507 63.2406 205.722 61.8338 205.722 58.9242Z" fill="white"/>
<defs>
<filter id="filter0_d" x="0.546875" y="0.812805" width="81.8585" height="82.2833" filterUnits="userSpaceOnUse" color-interpolation-filters="sRGB">
<feFlood flood-opacity="0" result="BackgroundImageFix"/>
<feColorMatrix in="SourceAlpha" type="matrix" values="0 0 0 0 0 0 0 0 0 0 0 0 0 0 0 0 0 0 127 0"/>
<feOffset/>
<feGaussianBlur stdDeviation="5"/>
<feColorMatrix type="matrix" values="0 0 0 0 0 0 0 0 0 0 0 0 0 0 0 0 0 0 0.4 0"/>
<feBlend mode="normal" in2="BackgroundImageFix" result="effect1_dropShadow"/>
<feBlend mode="normal" in="SourceGraphic" in2="effect1_dropShadow" result="shape"/>
</filter>
</defs>
</svg>
